<svg width="130" height="130" viewBox="0 0 130 130" fill="none" xmlns="http://www.w3.org/2000/svg">
<rect width="130" height="130" rx="30" fill="#F5F7F9"/>
<path d="M71.3935 97L59.4235 74.14H59.3335V97H39.3535V33.28H69.0535C74.2135 33.28 78.6235 34.21 82.2835 36.07C85.9435 37.87 88.6735 40.36 90.4735 43.54C92.3335 46.66 93.2635 50.2 93.2635 54.16C93.2635 58.42 92.0635 62.2 89.6635 65.5C87.3235 68.8 83.9335 71.17 79.4935 72.61L93.3535 97H71.3935ZM59.3335 60.82H67.2535C69.1735 60.82 70.6135 60.4 71.5735 59.56C72.5335 58.66 73.0135 57.28 73.0135 55.42C73.0135 53.74 72.5035 52.42 71.4835 51.46C70.5235 50.5 69.1135 50.02 67.2535 50.02H59.3335V60.82Z" fill="#252A31"/>
</svg>
